<mxfile host="app.diagrams.net" modified="2021-03-07T12:58:17.848Z" agent="5.0 (Windows NT 10.0; WOW64) AppleWebKit/537.36 (KHTML, like Gecko) Chrome/70.0.3538.25 Safari/537.36 Core/1.70.3861.400 QQBrowser/10.7.4313.400" etag="j_Lj5dew3esHnOLG5TOz" version="14.4.4" type="github">
  <diagram id="hegO4IqtvXSWZAgsIqix" name="Page-1">
    <mxGraphModel dx="1067" dy="486" grid="1" gridSize="10" guides="1" tooltips="1" connect="1" arrows="1" fold="1" page="1" pageScale="1" pageWidth="827" pageHeight="1169" math="0" shadow="0">
      <root>
        <mxCell id="0" />
        <mxCell id="1" parent="0" />
        <mxCell id="FxieASqsNzJypy_QcxCy-3" style="edgeStyle=orthogonalEdgeStyle;rounded=0;orthogonalLoop=1;jettySize=auto;html=1;" edge="1" parent="1" source="FxieASqsNzJypy_QcxCy-1" target="FxieASqsNzJypy_QcxCy-2">
          <mxGeometry relative="1" as="geometry" />
        </mxCell>
        <mxCell id="FxieASqsNzJypy_QcxCy-1" value="&lt;div style=&quot;text-align: left&quot;&gt;&lt;span&gt;&lt;font style=&quot;font-size: 14px&quot;&gt;eureka初始化时会&lt;/font&gt;&lt;/span&gt;&lt;/div&gt;&lt;div style=&quot;text-align: left&quot;&gt;&lt;span&gt;&lt;font size=&quot;3&quot;&gt;创建DiscoveryClient,在创建该类的构造器中&lt;/font&gt;&lt;/span&gt;&lt;/div&gt;&lt;div style=&quot;text-align: left&quot;&gt;&lt;span&gt;&lt;font size=&quot;3&quot;&gt;会创建一个InstanceInfoReplicator组件,&lt;/font&gt;&lt;/span&gt;&lt;/div&gt;&lt;div style=&quot;text-align: left&quot;&gt;&lt;span&gt;&lt;font size=&quot;3&quot;&gt;并执行调度执行了服务注册逻辑&lt;/font&gt;&lt;/span&gt;&lt;/div&gt;" style="rounded=1;whiteSpace=wrap;html=1;" vertex="1" parent="1">
          <mxGeometry x="140" y="70" width="280" height="130" as="geometry" />
        </mxCell>
        <mxCell id="FxieASqsNzJypy_QcxCy-5" style="edgeStyle=orthogonalEdgeStyle;rounded=0;orthogonalLoop=1;jettySize=auto;html=1;" edge="1" parent="1" source="FxieASqsNzJypy_QcxCy-2" target="FxieASqsNzJypy_QcxCy-4">
          <mxGeometry relative="1" as="geometry" />
        </mxCell>
        <mxCell id="FxieASqsNzJypy_QcxCy-2" value="&lt;font style=&quot;font-size: 14px&quot;&gt;执行了AbstractJersey2EurekaHttpClient.register()方法发送http&amp;nbsp; post请求,将服务实例当作参数,&lt;br&gt;调用eurekaServer的接口进行注册&lt;/font&gt;" style="rounded=1;whiteSpace=wrap;html=1;" vertex="1" parent="1">
          <mxGeometry x="135" y="270" width="290" height="90" as="geometry" />
        </mxCell>
        <mxCell id="FxieASqsNzJypy_QcxCy-7" style="edgeStyle=orthogonalEdgeStyle;rounded=0;orthogonalLoop=1;jettySize=auto;html=1;entryX=0.5;entryY=0;entryDx=0;entryDy=0;" edge="1" parent="1" source="FxieASqsNzJypy_QcxCy-4" target="FxieASqsNzJypy_QcxCy-6">
          <mxGeometry relative="1" as="geometry" />
        </mxCell>
        <mxCell id="FxieASqsNzJypy_QcxCy-4" value="EurekaServer是一个web应用,&lt;br&gt;web.xml配置了jersey的servlet,&lt;br&gt;拦截了所有的请求,&lt;br&gt;将注册请求分发给了ApplicationsResource" style="rounded=1;whiteSpace=wrap;html=1;" vertex="1" parent="1">
          <mxGeometry x="530" y="257.5" width="220" height="115" as="geometry" />
        </mxCell>
        <mxCell id="FxieASqsNzJypy_QcxCy-9" style="edgeStyle=orthogonalEdgeStyle;rounded=0;orthogonalLoop=1;jettySize=auto;html=1;" edge="1" parent="1" source="FxieASqsNzJypy_QcxCy-6" target="FxieASqsNzJypy_QcxCy-8">
          <mxGeometry relative="1" as="geometry" />
        </mxCell>
        <mxCell id="FxieASqsNzJypy_QcxCy-6" value="&lt;font style=&quot;font-size: 14px&quot;&gt;将注册请求转发到ApplicationResource的addInstance()方法进行注册&lt;/font&gt;" style="rounded=1;whiteSpace=wrap;html=1;" vertex="1" parent="1">
          <mxGeometry x="535" y="420" width="210" height="70" as="geometry" />
        </mxCell>
        <mxCell id="FxieASqsNzJypy_QcxCy-11" style="edgeStyle=orthogonalEdgeStyle;rounded=0;orthogonalLoop=1;jettySize=auto;html=1;entryX=1;entryY=0.5;entryDx=0;entryDy=0;" edge="1" parent="1" source="FxieASqsNzJypy_QcxCy-8" target="FxieASqsNzJypy_QcxCy-10">
          <mxGeometry relative="1" as="geometry" />
        </mxCell>
        <mxCell id="FxieASqsNzJypy_QcxCy-8" value="&lt;font style=&quot;font-size: 14px&quot;&gt;将服务实例信息添加到一个ConcurrentHashMap中,&lt;br&gt;数据结构为:&lt;br&gt;{&lt;br&gt;&amp;nbsp; &amp;nbsp; &quot;服务名称&quot;:&lt;br&gt;&amp;nbsp; &amp;nbsp; &amp;nbsp; &amp;nbsp; &amp;nbsp; &amp;nbsp; &amp;nbsp; {&lt;br&gt;&amp;nbsp; &amp;nbsp; &amp;nbsp; &amp;nbsp; &amp;nbsp; &amp;nbsp; &amp;nbsp; &amp;nbsp; &amp;nbsp; &amp;nbsp;&quot;服务实例ID&quot;: Lease&amp;lt;InstanceInfo&amp;gt;&lt;br&gt;&amp;nbsp; &amp;nbsp; &amp;nbsp; &amp;nbsp; &amp;nbsp; &amp;nbsp; &amp;nbsp; }&lt;br&gt;}&lt;/font&gt;" style="rounded=1;whiteSpace=wrap;html=1;align=left;" vertex="1" parent="1">
          <mxGeometry x="477.5" y="540" width="325" height="160" as="geometry" />
        </mxCell>
        <mxCell id="FxieASqsNzJypy_QcxCy-10" value="&lt;font style=&quot;font-size: 14px&quot;&gt;访问EurekaServer控制台返回的status.jsp,显示的服务信息就是从这个map中获取的&lt;/font&gt;" style="rounded=1;whiteSpace=wrap;html=1;" vertex="1" parent="1">
          <mxGeometry x="190" y="575" width="200" height="90" as="geometry" />
        </mxCell>
      </root>
    </mxGraphModel>
  </diagram>
</mxfile>
